<svg xmlns="http://www.w3.org/2000/svg" viewBox="0 0 397.91 91.06"><defs><style>.cls-1{fill:#fff;}</style></defs><g id="Layer_2" data-name="Layer 2"><g id="logo"><path class="cls-1" d="M50.39,84.33H25.44a18.9,18.9,0,0,1-18.9-18.9V26.68A18.9,18.9,0,0,1,25.44,7.79h30.4A40.19,40.19,0,0,0,46,10a25.6,25.6,0,0,0-10.91,7.27A17.17,17.17,0,0,0,30.9,28.9q0,7.27,3.56,11.8A22.64,22.64,0,0,0,43,47.49,96.69,96.69,0,0,0,56,52Q62.43,54,66.07,55.41a16.56,16.56,0,0,1,6.06,4.05,9.27,9.27,0,0,1,2.43,6.62,11.08,11.08,0,0,1-4.29,9.3Q66,78.7,58.39,78.7q-8.41,0-12.86-2.83a8.71,8.71,0,0,1-4.44-7.68A7.63,7.63,0,0,1,43,62.69a15.09,15.09,0,0,0,1.86-2.1c0-.54-.68-1.3-2-2.27a7.71,7.71,0,0,0-4.61-1.45,9.81,9.81,0,0,0-7.36,2.91A10.42,10.42,0,0,0,28,67.38q0,8.25,8.09,12.77A37.18,37.18,0,0,0,50.39,84.33Z"/><path class="cls-1" d="M64.9,1.05H25.11A25.14,25.14,0,0,0,0,26.16V66A25.13,25.13,0,0,0,25.11,91.06H64.9A25.13,25.13,0,0,0,90,66V26.16A25.14,25.14,0,0,0,64.9,1.05Zm23,64.9a23,23,0,0,1-23,23H25.11a23,23,0,0,1-23-23V26.16a23,23,0,0,1,23-23H64.9a22.84,22.84,0,0,1,14.3,5c4.47,4.31,7.42,11.54,4.08,18.78a10.62,10.62,0,0,1-2,3.34,8.85,8.85,0,0,1-7,3.07A7.68,7.68,0,0,1,69.66,32c-1.35-1-2-1.73-2-2.27a6.35,6.35,0,0,1,1.29-1.29,14.22,14.22,0,0,0,2.35-2.67,6.34,6.34,0,0,0,1-3.64A8.35,8.35,0,0,0,68,15.31a18.28,18.28,0,0,0-9.54-2.42,20.08,20.08,0,0,0-10.75,2.83,8.77,8.77,0,0,0-4.61,7.84A12,12,0,0,0,45,30.75,13.25,13.25,0,0,0,50.82,35q3.88,1.62,12.29,4.36a109.93,109.93,0,0,1,13.42,5.1,20.24,20.24,0,0,1,6.75,5.17l.07.08a20.24,20.24,0,0,1,4.51,13Z"/><path class="cls-1" d="M119.81,76.85a21.53,21.53,0,0,1-8.55-6.65,16.85,16.85,0,0,1-3.45-9.3h14.1a7.71,7.71,0,0,0,3.15,5.3,11,11,0,0,0,6.85,2.1,10.6,10.6,0,0,0,6.25-1.6,4.84,4.84,0,0,0,2.25-4.1,4.33,4.33,0,0,0-2.75-4.05,51.94,51.94,0,0,0-8.75-2.95,73.69,73.69,0,0,1-10.15-3.1,17.68,17.68,0,0,1-6.8-4.9q-2.85-3.3-2.85-8.9a14.32,14.32,0,0,1,2.65-8.4,17.86,17.86,0,0,1,7.6-6A28.43,28.43,0,0,1,131,22.1q9.9,0,15.8,4.95a18.35,18.35,0,0,1,6.5,13.35h-13.4a7.27,7.27,0,0,0-2.75-5.25,10.22,10.22,0,0,0-6.55-1.95,10.36,10.36,0,0,0-5.85,1.4,4.45,4.45,0,0,0-2.05,3.9,4.58,4.58,0,0,0,2.8,4.25,43.42,43.42,0,0,0,8.7,3,73.37,73.37,0,0,1,9.9,3.1,17.56,17.56,0,0,1,6.75,5,13.6,13.6,0,0,1,2.95,8.85,14.64,14.64,0,0,1-2.65,8.6,17.48,17.48,0,0,1-7.6,6A28.85,28.85,0,0,1,132,79.3,29.28,29.28,0,0,1,119.81,76.85Z"/><path class="cls-1" d="M165.06,35.6a24.55,24.55,0,0,1,9.1-10A24.26,24.26,0,0,1,187,22.1a22.54,22.54,0,0,1,10.85,2.5,22.12,22.12,0,0,1,7.45,6.3V23h14.1V78.4h-14.1V70.3a20.8,20.8,0,0,1-7.45,6.45,22.81,22.81,0,0,1-11,2.55,23.53,23.53,0,0,1-12.75-3.6,25.17,25.17,0,0,1-9.1-10.15,32.64,32.64,0,0,1-3.35-15A32.1,32.1,0,0,1,165.06,35.6ZM203.31,42a14.08,14.08,0,0,0-5.4-5.6,14.44,14.44,0,0,0-7.3-2,14.15,14.15,0,0,0-7.2,1.9,14.38,14.38,0,0,0-5.35,5.55A17.35,17.35,0,0,0,176,50.5a17.93,17.93,0,0,0,2.05,8.75,14.78,14.78,0,0,0,5.4,5.75,13.75,13.75,0,0,0,7.15,2,14.44,14.44,0,0,0,7.3-2,14.08,14.08,0,0,0,5.4-5.6,18,18,0,0,0,2-8.75A18,18,0,0,0,203.31,42Z"/><path class="cls-1" d="M232.86,35.6a24.55,24.55,0,0,1,9.1-10,24.26,24.26,0,0,1,12.85-3.5,22.54,22.54,0,0,1,10.85,2.5,22.12,22.12,0,0,1,7.45,6.3V23h14.1V78.4h-14.1V70.3a20.8,20.8,0,0,1-7.45,6.45,22.81,22.81,0,0,1-11,2.55A23.53,23.53,0,0,1,242,75.7a25.17,25.17,0,0,1-9.1-10.15,32.64,32.64,0,0,1-3.35-15A32.1,32.1,0,0,1,232.86,35.6ZM271.11,42a14.08,14.08,0,0,0-5.4-5.6,14.44,14.44,0,0,0-7.3-2,14.15,14.15,0,0,0-7.2,1.9,14.38,14.38,0,0,0-5.35,5.55,17.35,17.35,0,0,0-2.05,8.65,17.93,17.93,0,0,0,2.05,8.75,14.78,14.78,0,0,0,5.4,5.75,13.75,13.75,0,0,0,7.15,2,14.44,14.44,0,0,0,7.3-2,14.08,14.08,0,0,0,5.4-5.6,18,18,0,0,0,2-8.75A18,18,0,0,0,271.11,42Z"/><path class="cls-1" d="M309.91,76.85a21.53,21.53,0,0,1-8.55-6.65,16.85,16.85,0,0,1-3.45-9.3H312a7.71,7.71,0,0,0,3.15,5.3A11,11,0,0,0,322,68.3a10.6,10.6,0,0,0,6.25-1.6,4.84,4.84,0,0,0,2.25-4.1,4.33,4.33,0,0,0-2.75-4.05A51.94,51.94,0,0,0,319,55.6a73.69,73.69,0,0,1-10.15-3.1,17.68,17.68,0,0,1-6.8-4.9q-2.85-3.3-2.85-8.9a14.32,14.32,0,0,1,2.65-8.4,17.86,17.86,0,0,1,7.6-6,28.43,28.43,0,0,1,11.65-2.2q9.9,0,15.8,4.95a18.35,18.35,0,0,1,6.5,13.35H330a7.27,7.27,0,0,0-2.75-5.25,10.22,10.22,0,0,0-6.55-1.95,10.36,10.36,0,0,0-5.85,1.4,4.45,4.45,0,0,0-2.05,3.9,4.58,4.58,0,0,0,2.8,4.25,43.42,43.42,0,0,0,8.7,3,73.37,73.37,0,0,1,9.9,3.1,17.56,17.56,0,0,1,6.75,5,13.6,13.6,0,0,1,3,8.85,14.64,14.64,0,0,1-2.65,8.6,17.48,17.48,0,0,1-7.6,6,28.85,28.85,0,0,1-11.55,2.15A29.28,29.28,0,0,1,309.91,76.85Z"/><path class="cls-1" d="M356.36,14.05a7.8,7.8,0,0,1-2.45-5.85,7.8,7.8,0,0,1,2.45-5.85,9.22,9.22,0,0,1,12.3,0,7.8,7.8,0,0,1,2.45,5.85,7.8,7.8,0,0,1-2.45,5.85,9.22,9.22,0,0,1-12.3,0Zm13.05,9V78.4h-14V23Z"/><path class="cls-1" d="M383.16,76.75a8.21,8.21,0,0,1,0-11.7,8.65,8.65,0,0,1,6.25-2.35,8.34,8.34,0,0,1,6.1,2.35,8.33,8.33,0,0,1,0,11.7,8.34,8.34,0,0,1-6.1,2.35A8.65,8.65,0,0,1,383.16,76.75Z"/></g></g></svg>