<?xml version="1.0" encoding="UTF-8"?>
<svg xmlns="http://www.w3.org/2000/svg" xmlns:xlink="http://www.w3.org/1999/xlink" width="3965pt" height="500pt" viewBox="0 0 3965 500" version="1.1">
<defs>
<linearGradient id="linear0" gradientUnits="userSpaceOnUse" x1="0.283" y1="0.246" x2="0.86" y2="1.058" gradientTransform="matrix(499.886719,0,0,500.164063,0,0)">
<stop offset="0" style="stop-color:rgb(3.529412%,43.529412%,69.803922%);stop-opacity:1;"/>
<stop offset="1" style="stop-color:rgb(1.960784%,21.960784%,34.901961%);stop-opacity:1;"/>
</linearGradient>
<linearGradient id="linear1" gradientUnits="userSpaceOnUse" x1="0.5" y1="0" x2="0.5" y2="0.5" gradientTransform="matrix(3233.652344,0,0,401.945312,730.601562,48.363281)">
<stop offset="0" style="stop-color:rgb(3.529412%,43.529412%,69.803922%);stop-opacity:1;"/>
<stop offset="1" style="stop-color:rgb(1.960784%,21.960784%,34.901961%);stop-opacity:1;"/>
</linearGradient>
</defs>
<g id="surface1">
<path style=" stroke:none;fill-rule:nonzero;fill:rgb(100%,98.823529%,0%);fill-opacity:1;" d="M 92.886719 306.714844 L 147.183594 252.414062 C 148.472656 251.125 150.558594 251.125 151.847656 252.414062 L 245.453125 346.023438 C 246.742188 347.3125 246.742188 349.402344 245.453125 350.691406 L 191.15625 404.992188 C 189.867188 406.28125 187.777344 406.28125 186.488281 404.992188 L 92.886719 311.382812 C 91.597656 310.09375 91.597656 308.003906 92.886719 306.714844 Z M 92.886719 306.714844 "/>
<path style=" stroke:none;fill-rule:nonzero;fill:rgb(0%,100%,3.137255%);fill-opacity:1;" d="M 315.238281 84.335938 L 369.535156 30.035156 C 370.824219 28.746094 372.914062 28.746094 374.203125 30.035156 L 467.804688 123.648438 C 469.09375 124.9375 469.09375 127.027344 467.804688 128.316406 L 413.511719 182.613281 C 412.222656 183.902344 410.132812 183.902344 408.84375 182.613281 L 315.238281 89.003906 C 313.953125 87.714844 313.953125 85.625 315.238281 84.335938 Z M 315.238281 84.335938 "/>
<path style=" stroke:none;fill-rule:nonzero;fill:url(#linear0);" d="M 240.355469 500.164062 C 111.542969 495.3125 7.5 393.382812 0 264.6875 C 68.996094 238.996094 144.484375 233.609375 195.636719 233.609375 C 225.925781 233.609375 251.007812 235.425781 266.734375 236.96875 C 271.199219 281.953125 277.488281 397.617188 240.371094 500.144531 Z M 41.105469 298.25 C 30.726562 298.269531 21.378906 304.523438 17.398438 314.109375 C 13.417969 323.691406 15.585938 334.730469 22.894531 342.097656 L 161.398438 480.609375 C 166.226562 485.410156 172.753906 488.113281 179.5625 488.128906 C 186.390625 488.160156 192.953125 485.453125 197.769531 480.609375 C 207.757812 470.539062 207.738281 454.292969 197.726562 444.246094 L 59.207031 305.777344 C 54.425781 300.9375 47.902344 298.226562 41.105469 298.25 Z M 152.332031 273.308594 C 141.960938 273.3125 132.613281 279.566406 128.648438 289.152344 C 124.683594 298.738281 126.886719 309.769531 134.226562 317.097656 L 186.4375 369.378906 C 196.496094 379.21875 212.597656 379.132812 222.550781 369.1875 C 232.5 359.242188 232.597656 343.140625 222.765625 333.074219 L 170.480469 280.839844 C 165.683594 276.003906 159.144531 273.292969 152.332031 273.308594 Z M 295.992188 496.054688 L 296.007812 496.019531 C 326.574219 397.070312 323.445312 294.511719 318.84375 242.183594 C 340.625 244.085938 363.230469 245.070312 386.089844 245.070312 C 424.066406 245.1875 461.996094 242.25 499.503906 236.289062 C 499.753906 241.105469 499.886719 245.761719 499.886719 250.171875 C 499.921875 370.5 414.28125 473.804688 296.035156 496.054688 Z M 2.925781 209.152344 L 2.941406 209.101562 C 23.0625 88.453125 127.429688 0.0273438 249.730469 0 C 255.769531 0 261.925781 0.222656 268.027344 0.660156 C 255.09375 77.289062 258.402344 148.910156 261.515625 184.796875 C 239.738281 182.886719 217.152344 181.910156 194.34375 181.910156 C 123.761719 181.910156 59.382812 191.074219 2.984375 209.136719 Z M 384.75 193.382812 C 354.316406 193.382812 329.277344 191.554688 313.632812 190.011719 C 310.136719 154.90625 306.210938 84.835938 318.75 9.648438 C 402.992188 34.03125 468.421875 100.585938 491.378906 185.234375 C 456.109375 190.785156 420.453125 193.511719 384.75 193.382812 Z M 370.378906 55.265625 C 363.5625 55.25 357.023438 57.96875 352.226562 62.820312 C 342.222656 72.847656 342.210938 89.078125 352.199219 99.121094 L 404.453125 151.402344 C 414.492188 161.417969 430.742188 161.417969 440.78125 151.402344 C 450.789062 141.347656 450.789062 125.09375 440.78125 115.039062 L 388.558594 62.8125 C 383.746094 57.96875 377.203125 55.25 370.378906 55.257812 Z M 370.378906 55.265625 "/>
<path style=" stroke:none;fill-rule:nonzero;fill:url(#linear1);" d="M 765.066406 449.199219 C 742.089844 449.199219 730.601562 437.335938 730.601562 413.617188 L 730.601562 83.386719 C 730.601562 60.035156 742.089844 48.363281 765.066406 48.363281 C 788.414062 48.363281 800.089844 60.035156 800.089844 83.386719 L 800.089844 212.363281 C 809.035156 197.824219 821.960938 186.15625 837.332031 178.730469 C 853.460938 171.007812 871.152344 167.105469 889.03125 167.332031 C 953.144531 167.332031 985.199219 204.582031 985.199219 279.078125 L 985.199219 413.617188 C 985.199219 437.339844 973.710938 449.199219 950.734375 449.199219 C 927.386719 449.199219 915.714844 437.339844 915.714844 413.617188 L 915.714844 282.414062 C 915.714844 261.292969 911.730469 245.910156 903.761719 236.269531 C 895.796875 226.628906 883.476562 221.8125 866.800781 221.816406 C 846.417969 221.816406 830.207031 228.210938 818.160156 240.996094 C 806.117188 253.785156 800.09375 270.738281 800.089844 291.859375 L 800.089844 413.613281 C 800.089844 437.335938 788.414062 449.199219 765.066406 449.199219 Z M 1189.773438 450.308594 C 1159.011719 450.308594 1132.515625 444.566406 1110.277344 433.074219 C 1088.6875 422.199219 1070.796875 405.179688 1058.859375 384.152344 C 1046.8125 363.03125 1040.792969 338.015625 1040.792969 309.101562 C 1040.792969 280.9375 1046.628906 256.289062 1058.300781 235.160156 C 1069.5625 214.457031 1086.292969 197.246094 1106.664062 185.402344 C 1127.234375 173.359375 1150.675781 167.335938 1176.984375 167.335938 C 1215.527344 167.335938 1246.011719 179.566406 1268.433594 204.027344 C 1290.855469 228.488281 1302.0625 261.847656 1302.0625 304.097656 C 1302.0625 317.8125 1293.171875 324.667969 1275.382812 324.667969 L 1107.5 324.667969 C 1112.6875 373.21875 1140.484375 397.496094 1190.886719 397.496094 C 1201.816406 397.355469 1212.710938 396.144531 1223.40625 393.882812 C 1235.378906 391.5 1246.910156 387.28125 1257.59375 381.375 C 1267.230469 375.816406 1275.382812 374.054688 1282.054688 376.09375 C 1288.316406 377.785156 1293.503906 382.160156 1296.230469 388.046875 C 1299.027344 394.261719 1299.425781 401.292969 1297.34375 407.78125 C 1295.304688 415.011719 1290.023438 421.21875 1281.5 426.40625 C 1267.703125 434.894531 1252.574219 441.003906 1236.75 444.472656 C 1221.363281 448.1875 1205.601562 450.144531 1189.773438 450.308594 Z M 1179.765625 214.589844 C 1159.382812 214.589844 1142.890625 220.890625 1130.292969 233.492188 C 1117.691406 246.09375 1110.09375 263.144531 1107.5 284.648438 L 1244.253906 284.648438 C 1242.769531 262.039062 1236.5625 244.710938 1225.628906 232.667969 C 1214.699219 220.621094 1199.410156 214.597656 1179.765625 214.589844 Z M 1446.597656 450.308594 C 1426.957031 450.308594 1409.445312 446.511719 1394.066406 438.914062 C 1379.5 432.011719 1367.027344 421.363281 1357.929688 408.054688 C 1349.21875 395.078125 1344.664062 379.761719 1344.867188 364.136719 C 1344.867188 344.121094 1350.054688 328.277344 1360.433594 316.601562 C 1370.808594 304.929688 1387.671875 296.496094 1411.019531 291.308594 C 1434.367188 286.117188 1465.683594 283.523438 1504.964844 283.523438 L 1524.425781 283.523438 L 1524.425781 271.847656 C 1524.425781 253.316406 1520.347656 239.972656 1512.195312 231.820312 C 1504.042969 223.667969 1490.332031 219.589844 1471.058594 219.589844 C 1459.375 219.691406 1447.730469 221 1436.316406 223.484375 C 1422.792969 226.453125 1409.648438 230.929688 1397.125 236.828125 C 1388.230469 240.90625 1380.816406 241.367188 1374.886719 238.21875 C 1368.984375 235.097656 1364.652344 229.65625 1362.9375 223.203125 C 1360.898438 216.332031 1361.292969 208.96875 1364.050781 202.351562 C 1366.828125 195.3125 1372.480469 190.125 1381.003906 186.789062 C 1396.847656 180.109375 1413.332031 175.078125 1430.203125 171.769531 C 1444.394531 168.960938 1458.816406 167.46875 1473.285156 167.316406 C 1512.9375 167.316406 1542.402344 176.488281 1561.671875 194.835938 C 1580.941406 213.179688 1590.578125 241.628906 1590.578125 280.171875 L 1590.578125 413.601562 C 1590.578125 437.320312 1579.832031 449.179688 1558.335938 449.179688 C 1536.472656 449.179688 1525.539062 437.320312 1525.539062 413.601562 L 1525.539062 401.371094 C 1519.558594 416.183594 1509.050781 428.734375 1495.519531 437.226562 C 1481.804688 445.949219 1465.5 450.308594 1446.597656 450.308594 Z M 1461.050781 402.5 C 1479.210938 402.5 1494.3125 396.199219 1506.359375 383.597656 C 1518.402344 370.992188 1524.425781 355.058594 1524.425781 335.785156 L 1524.425781 323.554688 L 1505.523438 323.554688 C 1470.683594 323.554688 1446.503906 326.242188 1432.976562 331.617188 C 1419.449219 336.988281 1412.683594 346.71875 1412.683594 360.800781 C 1412.683594 373.03125 1416.945312 383.039062 1425.46875 390.824219 C 1433.992188 398.605469 1445.851562 402.5 1461.050781 402.5 Z M 1754.011719 450.308594 C 1692.121094 450.308594 1661.175781 415.65625 1661.175781 346.351562 L 1661.175781 83.386719 C 1661.175781 60.035156 1672.664062 48.363281 1695.640625 48.363281 C 1718.988281 48.363281 1730.664062 60.035156 1730.664062 83.386719 L 1730.664062 343.015625 C 1730.664062 376.371094 1744.558594 393.050781 1772.355469 393.050781 C 1775.324219 393.050781 1778.105469 392.957031 1780.691406 392.773438 C 1783.28125 392.585938 1785.875 392.308594 1788.476562 391.9375 C 1793.664062 391.199219 1797.183594 392.585938 1799.035156 396.109375 C 1800.886719 399.628906 1801.8125 406.765625 1801.816406 417.511719 C 1801.816406 426.78125 1799.964844 434.007812 1796.257812 439.195312 C 1792.550781 444.382812 1786.4375 447.53125 1777.914062 448.644531 C 1769.992188 449.765625 1762.003906 450.320312 1754.007812 450.308594 Z M 1959.691406 450.308594 C 1931.53125 450.308594 1907.070312 444.566406 1886.3125 433.074219 C 1865.726562 421.757812 1848.914062 404.652344 1837.949219 383.875 C 1826.460938 362.5625 1820.71875 337.453125 1820.71875 308.542969 C 1820.71875 279.636719 1826.460938 254.617188 1837.949219 233.492188 C 1848.976562 212.832031 1865.785156 195.832031 1886.3125 184.570312 C 1907.066406 173.078125 1931.527344 167.335938 1959.691406 167.335938 C 1987.855469 167.335938 2012.316406 173.078125 2033.070312 184.570312 C 2053.601562 195.832031 2070.40625 212.832031 2081.433594 233.492188 C 2092.921875 254.613281 2098.667969 279.632812 2098.667969 308.542969 C 2098.667969 337.457031 2092.921875 362.566406 2081.433594 383.875 C 2070.46875 404.652344 2053.65625 421.757812 2033.070312 433.074219 C 2012.316406 444.566406 1987.859375 450.308594 1959.691406 450.308594 Z M 1959.691406 397.496094 C 1980.445312 397.496094 1997.121094 389.988281 2009.722656 374.980469 C 2022.320312 359.96875 2028.621094 337.824219 2028.621094 308.542969 C 2028.621094 278.894531 2022.324219 256.746094 2009.722656 242.105469 C 1997.121094 227.46875 1980.445312 220.148438 1959.691406 220.148438 C 1938.9375 220.148438 1922.261719 227.46875 1909.660156 242.109375 C 1897.0625 256.75 1890.761719 278.894531 1890.761719 308.542969 C 1890.761719 337.824219 1897.0625 359.96875 1909.660156 374.980469 C 1922.261719 389.992188 1938.9375 397.496094 1959.691406 397.496094 Z M 2191.5 449.199219 C 2168.523438 449.199219 2157.035156 437.335938 2157.035156 413.617188 L 2157.035156 203.46875 C 2157.035156 180.121094 2168.339844 168.445312 2190.945312 168.445312 C 2213.550781 168.445312 2224.855469 180.121094 2224.859375 203.46875 L 2224.859375 214.589844 C 2232.707031 200.074219 2244.453125 188.042969 2258.769531 179.84375 C 2273.222656 171.503906 2289.898438 167.335938 2308.800781 167.335938 C 2349.566406 167.335938 2376.25 185.125 2388.847656 220.707031 C 2397.046875 204.378906 2409.785156 190.765625 2425.539062 181.511719 C 2441.476562 172.058594 2459.632812 167.335938 2480.015625 167.335938 C 2541.167969 167.335938 2571.742188 204.582031 2571.742188 279.082031 L 2571.742188 413.621094 C 2571.742188 437.339844 2560.066406 449.203125 2536.71875 449.203125 C 2513.742188 449.203125 2502.253906 437.339844 2502.253906 413.621094 L 2502.253906 281.859375 C 2502.253906 261.101562 2498.824219 245.90625 2491.96875 236.269531 C 2485.113281 226.632812 2473.53125 221.816406 2457.222656 221.816406 C 2439.066406 221.816406 2424.796875 228.210938 2414.417969 240.996094 C 2404.042969 253.785156 2398.855469 271.480469 2398.855469 294.089844 L 2398.855469 413.617188 C 2398.855469 437.335938 2387.367188 449.199219 2364.390625 449.199219 C 2341.042969 449.199219 2329.367188 437.335938 2329.367188 413.617188 L 2329.367188 281.859375 C 2329.367188 261.101562 2325.9375 245.90625 2319.082031 236.269531 C 2312.226562 226.632812 2300.832031 221.816406 2284.894531 221.816406 C 2266.734375 221.816406 2252.46875 228.210938 2242.089844 240.996094 C 2231.710938 253.785156 2226.523438 271.480469 2226.523438 294.089844 L 2226.523438 413.617188 C 2226.523438 437.335938 2214.847656 449.199219 2191.5 449.199219 Z M 2777.425781 450.308594 C 2746.664062 450.308594 2720.167969 444.566406 2697.929688 433.074219 C 2676.339844 422.199219 2658.449219 405.179688 2646.507812 384.152344 C 2634.464844 363.03125 2628.445312 338.015625 2628.445312 309.101562 C 2628.445312 280.9375 2634.28125 256.289062 2645.953125 235.160156 C 2657.214844 214.457031 2673.945312 197.246094 2694.316406 185.402344 C 2714.886719 173.359375 2738.328125 167.335938 2764.636719 167.335938 C 2803.179688 167.335938 2833.664062 179.566406 2856.082031 204.027344 C 2878.503906 228.488281 2889.714844 261.847656 2889.714844 304.097656 C 2889.714844 317.8125 2880.820312 324.667969 2863.03125 324.667969 L 2695.144531 324.667969 C 2700.332031 373.21875 2728.128906 397.496094 2778.527344 397.496094 C 2789.460938 397.355469 2800.351562 396.144531 2811.046875 393.882812 C 2823.019531 391.5 2834.550781 387.28125 2845.234375 381.375 C 2854.871094 375.816406 2863.023438 374.054688 2869.695312 376.09375 C 2875.953125 377.785156 2881.144531 382.160156 2883.871094 388.046875 C 2886.667969 394.261719 2887.066406 401.292969 2884.980469 407.78125 C 2882.945312 415.011719 2877.664062 421.21875 2869.140625 426.40625 C 2855.34375 434.894531 2840.214844 441.003906 2824.390625 444.472656 C 2809.003906 448.183594 2793.246094 450.144531 2777.417969 450.308594 Z M 2767.417969 214.589844 C 2747.035156 214.589844 2730.542969 220.890625 2717.945312 233.492188 C 2705.34375 246.09375 2697.746094 263.144531 2695.152344 284.648438 L 2831.902344 284.648438 C 2830.421875 262.039062 2824.214844 244.710938 2813.28125 232.667969 C 2802.347656 220.621094 2787.058594 214.597656 2767.410156 214.589844 Z M 2978.09375 447.53125 C 2965.492188 447.53125 2955.394531 443.636719 2947.796875 435.855469 C 2940.203125 428.070312 2936.402344 418.0625 2936.402344 405.832031 C 2936.402344 393.972656 2940.199219 384.246094 2947.796875 376.648438 C 2955.394531 369.050781 2965.496094 365.25 2978.09375 365.25 C 2991.066406 365.25 3001.164062 369.046875 3008.390625 376.648438 C 3015.617188 384.246094 3019.230469 393.972656 3019.230469 405.832031 C 3019.230469 418.0625 3015.617188 428.070312 3008.390625 435.855469 C 3001.164062 443.636719 2991.066406 447.53125 2978.09375 447.53125 Z M 3196.558594 450.308594 C 3168.398438 450.308594 3143.9375 444.566406 3123.179688 433.074219 C 3102.59375 421.757812 3085.78125 404.652344 3074.816406 383.875 C 3063.328125 362.5625 3057.582031 337.453125 3057.582031 308.542969 C 3057.582031 279.636719 3063.328125 254.617188 3074.816406 233.492188 C 3085.84375 212.832031 3102.648438 195.832031 3123.179688 184.570312 C 3143.9375 173.078125 3168.398438 167.332031 3196.558594 167.332031 C 3224.71875 167.332031 3249.175781 173.078125 3269.933594 184.566406 C 3290.464844 195.832031 3307.269531 212.832031 3318.300781 233.488281 C 3329.789062 254.613281 3335.53125 279.628906 3335.53125 308.542969 C 3335.53125 337.457031 3329.789062 362.566406 3318.300781 383.871094 C 3307.335938 404.648438 3290.519531 421.757812 3269.933594 433.074219 C 3249.1875 444.566406 3224.726562 450.308594 3196.558594 450.308594 Z M 3196.558594 397.496094 C 3217.308594 397.496094 3233.988281 389.988281 3246.585938 374.980469 C 3259.1875 359.96875 3265.488281 337.824219 3265.488281 308.542969 C 3265.488281 278.894531 3259.1875 256.746094 3246.585938 242.105469 C 3233.988281 227.46875 3217.308594 220.148438 3196.558594 220.148438 C 3175.804688 220.148438 3159.125 227.46875 3146.527344 242.109375 C 3133.925781 256.75 3127.628906 278.894531 3127.625 308.542969 C 3127.625 337.824219 3133.925781 359.96875 3146.527344 374.980469 C 3159.128906 389.992188 3175.804688 397.496094 3196.558594 397.496094 Z M 3427.253906 449.199219 C 3404.277344 449.199219 3392.789062 437.335938 3392.789062 413.617188 L 3392.789062 203.46875 C 3392.789062 180.121094 3404.09375 168.445312 3426.699219 168.445312 C 3449.304688 168.445312 3460.609375 180.121094 3460.609375 203.46875 L 3460.609375 215.144531 C 3469.476562 199.957031 3482.492188 187.613281 3498.132812 179.5625 C 3514.574219 171.246094 3532.792969 167.050781 3551.21875 167.332031 C 3615.332031 167.332031 3647.390625 204.582031 3647.390625 279.078125 L 3647.390625 413.617188 C 3647.390625 437.339844 3635.902344 449.199219 3612.921875 449.199219 C 3589.574219 449.199219 3577.902344 437.339844 3577.902344 413.617188 L 3577.902344 282.414062 C 3577.902344 261.292969 3573.917969 245.910156 3565.949219 236.269531 C 3557.984375 226.628906 3545.664062 221.8125 3528.992188 221.816406 C 3508.609375 221.816406 3492.394531 228.210938 3480.347656 240.996094 C 3468.304688 253.785156 3462.28125 270.738281 3462.285156 291.859375 L 3462.285156 413.613281 C 3462.285156 437.335938 3450.609375 449.199219 3427.261719 449.199219 Z M 3851.960938 450.308594 C 3821.199219 450.308594 3794.703125 444.566406 3772.46875 433.074219 C 3750.875 422.199219 3732.984375 405.179688 3721.046875 384.152344 C 3709.003906 363.03125 3702.980469 338.015625 3702.980469 309.101562 C 3702.980469 280.9375 3708.816406 256.289062 3720.488281 235.160156 C 3731.75 214.457031 3748.480469 197.246094 3768.855469 185.402344 C 3789.425781 173.359375 3812.863281 167.335938 3839.175781 167.335938 C 3877.714844 167.335938 3908.199219 179.566406 3930.621094 204.027344 C 3953.042969 228.488281 3964.253906 261.847656 3964.253906 304.097656 C 3964.253906 317.8125 3955.359375 324.667969 3937.570312 324.667969 L 3769.695312 324.667969 C 3774.882812 373.21875 3802.675781 397.496094 3853.078125 397.496094 C 3864.011719 397.355469 3874.902344 396.144531 3885.597656 393.882812 C 3897.570312 391.5 3909.101562 387.28125 3919.785156 381.375 C 3929.421875 375.816406 3937.574219 374.054688 3944.246094 376.09375 C 3950.507812 377.785156 3955.695312 382.160156 3958.421875 388.046875 C 3961.21875 394.261719 3961.617188 401.292969 3959.535156 407.78125 C 3957.496094 415.011719 3952.214844 421.21875 3943.691406 426.40625 C 3929.894531 434.894531 3914.765625 441.003906 3898.941406 444.472656 C 3883.554688 448.1875 3867.796875 450.144531 3851.96875 450.308594 Z M 3841.953125 214.589844 C 3821.570312 214.589844 3805.078125 220.890625 3792.480469 233.492188 C 3779.882812 246.09375 3772.285156 263.144531 3769.6875 284.648438 L 3906.4375 284.648438 C 3904.957031 262.039062 3898.75 244.710938 3887.816406 232.667969 C 3876.886719 220.621094 3861.601562 214.597656 3841.960938 214.589844 Z M 3841.953125 214.589844 "/>
</g>
</svg>
